<mxfile host="app.diagrams.net" agent="Mozilla/5.0 (Windows NT 10.0; Win64; x64) AppleWebKit/537.36 (KHTML, like Gecko) Chrome/126.0.0.0 Safari/537.36" version="24.7.4">
  <diagram name="Page-1" id="oR5uWrnA-iWxMa2yk2aS">
    <mxGraphModel dx="1122" dy="696" grid="1" gridSize="10" guides="1" tooltips="1" connect="1" arrows="1" fold="1" page="1" pageScale="1" pageWidth="850" pageHeight="1100" math="0" shadow="0">
      <root>
        <mxCell id="0" />
        <mxCell id="1" parent="0" />
        <mxCell id="UJC0oAEBfITfGY8Haboo-1" value="Nama_Depan" style="ellipse;whiteSpace=wrap;html=1;align=center;fontSize=9;" vertex="1" parent="1">
          <mxGeometry x="80" y="160" width="81" height="30" as="geometry" />
        </mxCell>
        <mxCell id="UJC0oAEBfITfGY8Haboo-2" value="Nama" style="ellipse;whiteSpace=wrap;html=1;align=center;fontSize=9;" vertex="1" parent="1">
          <mxGeometry x="171" y="190" width="60" height="30" as="geometry" />
        </mxCell>
        <mxCell id="UJC0oAEBfITfGY8Haboo-3" value="Nama_Belakang" style="ellipse;whiteSpace=wrap;html=1;align=center;fontSize=9;" vertex="1" parent="1">
          <mxGeometry x="240" y="160" width="76" height="30" as="geometry" />
        </mxCell>
        <mxCell id="UJC0oAEBfITfGY8Haboo-4" value="Nma_Tengah" style="ellipse;whiteSpace=wrap;html=1;align=center;fontSize=9;" vertex="1" parent="1">
          <mxGeometry x="161" y="120" width="80" height="30" as="geometry" />
        </mxCell>
        <mxCell id="UJC0oAEBfITfGY8Haboo-5" value="" style="endArrow=none;html=1;rounded=0;exitX=1;exitY=0.5;exitDx=0;exitDy=0;entryX=0.5;entryY=0;entryDx=0;entryDy=0;" edge="1" parent="1" source="UJC0oAEBfITfGY8Haboo-1" target="UJC0oAEBfITfGY8Haboo-2">
          <mxGeometry relative="1" as="geometry">
            <mxPoint x="340" y="310" as="sourcePoint" />
            <mxPoint x="500" y="310" as="targetPoint" />
          </mxGeometry>
        </mxCell>
        <mxCell id="UJC0oAEBfITfGY8Haboo-6" value="" style="endArrow=none;html=1;rounded=0;exitX=0.5;exitY=1;exitDx=0;exitDy=0;entryX=0.5;entryY=0;entryDx=0;entryDy=0;" edge="1" parent="1" source="UJC0oAEBfITfGY8Haboo-4" target="UJC0oAEBfITfGY8Haboo-2">
          <mxGeometry relative="1" as="geometry">
            <mxPoint x="340" y="310" as="sourcePoint" />
            <mxPoint x="500" y="310" as="targetPoint" />
          </mxGeometry>
        </mxCell>
        <mxCell id="UJC0oAEBfITfGY8Haboo-7" value="Jurusan" style="ellipse;whiteSpace=wrap;html=1;align=center;fontSize=9;" vertex="1" parent="1">
          <mxGeometry x="30" y="277" width="55" height="34" as="geometry" />
        </mxCell>
        <mxCell id="UJC0oAEBfITfGY8Haboo-8" value="" style="endArrow=none;html=1;rounded=0;exitX=0;exitY=0.5;exitDx=0;exitDy=0;entryX=0.5;entryY=0;entryDx=0;entryDy=0;" edge="1" parent="1" source="UJC0oAEBfITfGY8Haboo-3" target="UJC0oAEBfITfGY8Haboo-2">
          <mxGeometry relative="1" as="geometry">
            <mxPoint x="340" y="310" as="sourcePoint" />
            <mxPoint x="500" y="310" as="targetPoint" />
          </mxGeometry>
        </mxCell>
        <mxCell id="UJC0oAEBfITfGY8Haboo-9" value="Mahasiswa" style="whiteSpace=wrap;html=1;align=center;fontSize=11;" vertex="1" parent="1">
          <mxGeometry x="151" y="261" width="100" height="50" as="geometry" />
        </mxCell>
        <mxCell id="UJC0oAEBfITfGY8Haboo-10" value="" style="endArrow=none;html=1;rounded=0;exitX=0.5;exitY=1;exitDx=0;exitDy=0;entryX=0.5;entryY=0;entryDx=0;entryDy=0;" edge="1" parent="1" source="UJC0oAEBfITfGY8Haboo-2" target="UJC0oAEBfITfGY8Haboo-9">
          <mxGeometry relative="1" as="geometry">
            <mxPoint x="340" y="310" as="sourcePoint" />
            <mxPoint x="500" y="310" as="targetPoint" />
          </mxGeometry>
        </mxCell>
        <mxCell id="UJC0oAEBfITfGY8Haboo-11" value="Nim" style="ellipse;whiteSpace=wrap;html=1;align=center;fontStyle=4;fontSize=9;" vertex="1" parent="1">
          <mxGeometry x="75" y="243" width="55" height="34" as="geometry" />
        </mxCell>
        <mxCell id="UJC0oAEBfITfGY8Haboo-12" value="Alamat" style="ellipse;whiteSpace=wrap;html=1;align=center;fontSize=9;" vertex="1" parent="1">
          <mxGeometry x="75" y="311" width="55" height="34" as="geometry" />
        </mxCell>
        <mxCell id="UJC0oAEBfITfGY8Haboo-13" value="" style="endArrow=none;html=1;rounded=0;exitX=1;exitY=1;exitDx=0;exitDy=0;entryX=0;entryY=0.5;entryDx=0;entryDy=0;" edge="1" parent="1" source="UJC0oAEBfITfGY8Haboo-11" target="UJC0oAEBfITfGY8Haboo-9">
          <mxGeometry relative="1" as="geometry">
            <mxPoint x="340" y="310" as="sourcePoint" />
            <mxPoint x="500" y="310" as="targetPoint" />
          </mxGeometry>
        </mxCell>
        <mxCell id="UJC0oAEBfITfGY8Haboo-14" value="" style="endArrow=none;html=1;rounded=0;exitX=1;exitY=0.5;exitDx=0;exitDy=0;entryX=0;entryY=0.5;entryDx=0;entryDy=0;" edge="1" parent="1" source="UJC0oAEBfITfGY8Haboo-7" target="UJC0oAEBfITfGY8Haboo-9">
          <mxGeometry relative="1" as="geometry">
            <mxPoint x="340" y="310" as="sourcePoint" />
            <mxPoint x="230" y="310" as="targetPoint" />
          </mxGeometry>
        </mxCell>
        <mxCell id="UJC0oAEBfITfGY8Haboo-15" value="" style="endArrow=none;html=1;rounded=0;exitX=1;exitY=0;exitDx=0;exitDy=0;entryX=0;entryY=0.5;entryDx=0;entryDy=0;" edge="1" parent="1" source="UJC0oAEBfITfGY8Haboo-12" target="UJC0oAEBfITfGY8Haboo-9">
          <mxGeometry relative="1" as="geometry">
            <mxPoint x="340" y="310" as="sourcePoint" />
            <mxPoint x="500" y="310" as="targetPoint" />
          </mxGeometry>
        </mxCell>
        <mxCell id="UJC0oAEBfITfGY8Haboo-16" value="Mendaftar" style="shape=rhombus;perimeter=rhombusPerimeter;whiteSpace=wrap;html=1;align=center;fontSize=11;" vertex="1" parent="1">
          <mxGeometry x="380" y="251" width="80" height="70" as="geometry" />
        </mxCell>
        <mxCell id="UJC0oAEBfITfGY8Haboo-17" value="" style="endArrow=none;html=1;rounded=0;exitX=1;exitY=0.5;exitDx=0;exitDy=0;entryX=0;entryY=0.5;entryDx=0;entryDy=0;" edge="1" parent="1" source="UJC0oAEBfITfGY8Haboo-9" target="UJC0oAEBfITfGY8Haboo-16">
          <mxGeometry relative="1" as="geometry">
            <mxPoint x="339" y="332" as="sourcePoint" />
            <mxPoint x="429" y="322" as="targetPoint" />
          </mxGeometry>
        </mxCell>
        <mxCell id="UJC0oAEBfITfGY8Haboo-26" value="Many" style="edgeLabel;html=1;align=center;verticalAlign=middle;resizable=0;points=[];" vertex="1" connectable="0" parent="UJC0oAEBfITfGY8Haboo-17">
          <mxGeometry x="0.0029" y="-1" relative="1" as="geometry">
            <mxPoint x="-3" y="7" as="offset" />
          </mxGeometry>
        </mxCell>
        <mxCell id="UJC0oAEBfITfGY8Haboo-21" value="Alamat" style="ellipse;whiteSpace=wrap;html=1;align=center;fontSize=9;" vertex="1" parent="1">
          <mxGeometry x="332" y="220" width="55" height="34" as="geometry" />
        </mxCell>
        <mxCell id="UJC0oAEBfITfGY8Haboo-22" value="Jurusan" style="ellipse;whiteSpace=wrap;html=1;align=center;fontSize=9;" vertex="1" parent="1">
          <mxGeometry x="363" y="183" width="55" height="34" as="geometry" />
        </mxCell>
        <mxCell id="UJC0oAEBfITfGY8Haboo-23" value="Nim" style="ellipse;whiteSpace=wrap;html=1;align=center;fontStyle=4;fontSize=9;" vertex="1" parent="1">
          <mxGeometry x="425" y="183" width="55" height="34" as="geometry" />
        </mxCell>
        <mxCell id="UJC0oAEBfITfGY8Haboo-25" value="Nama" style="ellipse;whiteSpace=wrap;html=1;align=center;fontSize=9;" vertex="1" parent="1">
          <mxGeometry x="450" y="220" width="55" height="34" as="geometry" />
        </mxCell>
        <mxCell id="UJC0oAEBfITfGY8Haboo-27" value="" style="endArrow=none;html=1;rounded=0;exitX=0.5;exitY=1;exitDx=0;exitDy=0;entryX=0.5;entryY=0;entryDx=0;entryDy=0;" edge="1" parent="1" source="UJC0oAEBfITfGY8Haboo-22" target="UJC0oAEBfITfGY8Haboo-16">
          <mxGeometry relative="1" as="geometry">
            <mxPoint x="310" y="150" as="sourcePoint" />
            <mxPoint x="470" y="150" as="targetPoint" />
          </mxGeometry>
        </mxCell>
        <mxCell id="UJC0oAEBfITfGY8Haboo-29" value="" style="endArrow=none;html=1;rounded=0;entryX=0.5;entryY=0;entryDx=0;entryDy=0;" edge="1" parent="1" source="UJC0oAEBfITfGY8Haboo-21" target="UJC0oAEBfITfGY8Haboo-16">
          <mxGeometry relative="1" as="geometry">
            <mxPoint x="310" y="150" as="sourcePoint" />
            <mxPoint x="470" y="150" as="targetPoint" />
          </mxGeometry>
        </mxCell>
        <mxCell id="UJC0oAEBfITfGY8Haboo-30" value="" style="endArrow=none;html=1;rounded=0;entryX=0.5;entryY=1;entryDx=0;entryDy=0;" edge="1" parent="1" target="UJC0oAEBfITfGY8Haboo-23">
          <mxGeometry relative="1" as="geometry">
            <mxPoint x="420" y="250" as="sourcePoint" />
            <mxPoint x="470" y="150" as="targetPoint" />
          </mxGeometry>
        </mxCell>
        <mxCell id="UJC0oAEBfITfGY8Haboo-31" value="" style="endArrow=none;html=1;rounded=0;entryX=0.036;entryY=0.667;entryDx=0;entryDy=0;entryPerimeter=0;" edge="1" parent="1" target="UJC0oAEBfITfGY8Haboo-25">
          <mxGeometry relative="1" as="geometry">
            <mxPoint x="420" y="250" as="sourcePoint" />
            <mxPoint x="500" y="210" as="targetPoint" />
          </mxGeometry>
        </mxCell>
        <mxCell id="UJC0oAEBfITfGY8Haboo-32" value="Anggota Perpustakaan" style="whiteSpace=wrap;html=1;align=center;fontSize=11;" vertex="1" parent="1">
          <mxGeometry x="590" y="261" width="100" height="50" as="geometry" />
        </mxCell>
        <mxCell id="UJC0oAEBfITfGY8Haboo-33" value="Nomor_Anggota" style="ellipse;whiteSpace=wrap;html=1;align=center;fontStyle=4;fontSize=9;" vertex="1" parent="1">
          <mxGeometry x="510" y="200" width="80" height="35" as="geometry" />
        </mxCell>
        <mxCell id="UJC0oAEBfITfGY8Haboo-36" value="Nama" style="ellipse;whiteSpace=wrap;html=1;align=center;fontSize=9;" vertex="1" parent="1">
          <mxGeometry x="562" y="161" width="80" height="35" as="geometry" />
        </mxCell>
        <mxCell id="UJC0oAEBfITfGY8Haboo-37" value="Jurusan" style="ellipse;whiteSpace=wrap;html=1;align=center;fontSize=9;" vertex="1" parent="1">
          <mxGeometry x="647" y="161" width="80" height="35" as="geometry" />
        </mxCell>
        <mxCell id="UJC0oAEBfITfGY8Haboo-38" value="Masa_Berlaku" style="ellipse;whiteSpace=wrap;html=1;align=center;fontSize=9;" vertex="1" parent="1">
          <mxGeometry x="685" y="201" width="80" height="35" as="geometry" />
        </mxCell>
        <mxCell id="UJC0oAEBfITfGY8Haboo-39" value="" style="endArrow=none;html=1;rounded=0;exitX=1;exitY=0.5;exitDx=0;exitDy=0;entryX=0;entryY=0.5;entryDx=0;entryDy=0;" edge="1" parent="1" source="UJC0oAEBfITfGY8Haboo-16" target="UJC0oAEBfITfGY8Haboo-32">
          <mxGeometry relative="1" as="geometry">
            <mxPoint x="480" y="290" as="sourcePoint" />
            <mxPoint x="590" y="290" as="targetPoint" />
          </mxGeometry>
        </mxCell>
        <mxCell id="UJC0oAEBfITfGY8Haboo-79" value="Many" style="edgeLabel;html=1;align=center;verticalAlign=middle;resizable=0;points=[];" vertex="1" connectable="0" parent="UJC0oAEBfITfGY8Haboo-39">
          <mxGeometry x="-0.0513" y="1" relative="1" as="geometry">
            <mxPoint y="9" as="offset" />
          </mxGeometry>
        </mxCell>
        <mxCell id="UJC0oAEBfITfGY8Haboo-40" value="" style="endArrow=none;html=1;rounded=0;entryX=1;entryY=1;entryDx=0;entryDy=0;exitX=0.5;exitY=0;exitDx=0;exitDy=0;" edge="1" parent="1" source="UJC0oAEBfITfGY8Haboo-32" target="UJC0oAEBfITfGY8Haboo-33">
          <mxGeometry relative="1" as="geometry">
            <mxPoint x="480" y="290" as="sourcePoint" />
            <mxPoint x="640" y="290" as="targetPoint" />
          </mxGeometry>
        </mxCell>
        <mxCell id="UJC0oAEBfITfGY8Haboo-41" value="" style="endArrow=none;html=1;rounded=0;exitX=0.625;exitY=1.005;exitDx=0;exitDy=0;exitPerimeter=0;entryX=0.5;entryY=0;entryDx=0;entryDy=0;" edge="1" parent="1" source="UJC0oAEBfITfGY8Haboo-36" target="UJC0oAEBfITfGY8Haboo-32">
          <mxGeometry relative="1" as="geometry">
            <mxPoint x="480" y="290" as="sourcePoint" />
            <mxPoint x="640" y="290" as="targetPoint" />
          </mxGeometry>
        </mxCell>
        <mxCell id="UJC0oAEBfITfGY8Haboo-42" value="" style="endArrow=none;html=1;rounded=0;exitX=0;exitY=1;exitDx=0;exitDy=0;entryX=0.5;entryY=0;entryDx=0;entryDy=0;" edge="1" parent="1" source="UJC0oAEBfITfGY8Haboo-37" target="UJC0oAEBfITfGY8Haboo-32">
          <mxGeometry relative="1" as="geometry">
            <mxPoint x="480" y="290" as="sourcePoint" />
            <mxPoint x="640" y="290" as="targetPoint" />
          </mxGeometry>
        </mxCell>
        <mxCell id="UJC0oAEBfITfGY8Haboo-43" value="" style="endArrow=none;html=1;rounded=0;exitX=0.063;exitY=0.748;exitDx=0;exitDy=0;exitPerimeter=0;entryX=0.5;entryY=0;entryDx=0;entryDy=0;" edge="1" parent="1" source="UJC0oAEBfITfGY8Haboo-38" target="UJC0oAEBfITfGY8Haboo-32">
          <mxGeometry relative="1" as="geometry">
            <mxPoint x="480" y="290" as="sourcePoint" />
            <mxPoint x="640" y="290" as="targetPoint" />
          </mxGeometry>
        </mxCell>
        <mxCell id="UJC0oAEBfITfGY8Haboo-45" value="Judul-Buku" style="ellipse;whiteSpace=wrap;html=1;align=center;fontSize=9;" vertex="1" parent="1">
          <mxGeometry x="709" y="409" width="80" height="35" as="geometry" />
        </mxCell>
        <mxCell id="UJC0oAEBfITfGY8Haboo-46" value="Tnggal_Pinjam" style="ellipse;whiteSpace=wrap;html=1;align=center;fontSize=9;" vertex="1" parent="1">
          <mxGeometry x="493" y="410" width="80" height="35" as="geometry" />
        </mxCell>
        <mxCell id="UJC0oAEBfITfGY8Haboo-47" value="Tanggal_Kembali" style="ellipse;whiteSpace=wrap;html=1;align=center;fontSize=9;" vertex="1" parent="1">
          <mxGeometry x="492" y="371" width="80" height="35" as="geometry" />
        </mxCell>
        <mxCell id="UJC0oAEBfITfGY8Haboo-48" value="Kode_Pinjaman" style="ellipse;whiteSpace=wrap;html=1;align=center;fontSize=9;" vertex="1" parent="1">
          <mxGeometry x="540" y="337" width="80" height="35" as="geometry" />
        </mxCell>
        <mxCell id="UJC0oAEBfITfGY8Haboo-49" value="Mendaftar" style="shape=rhombus;perimeter=rhombusPerimeter;whiteSpace=wrap;html=1;align=center;fontSize=11;" vertex="1" parent="1">
          <mxGeometry x="600" y="368" width="80" height="70" as="geometry" />
        </mxCell>
        <mxCell id="UJC0oAEBfITfGY8Haboo-51" value="" style="endArrow=none;html=1;rounded=0;entryX=0.5;entryY=1;entryDx=0;entryDy=0;exitX=0.5;exitY=0;exitDx=0;exitDy=0;" edge="1" parent="1" source="UJC0oAEBfITfGY8Haboo-49" target="UJC0oAEBfITfGY8Haboo-32">
          <mxGeometry relative="1" as="geometry">
            <mxPoint x="480" y="290" as="sourcePoint" />
            <mxPoint x="640" y="290" as="targetPoint" />
          </mxGeometry>
        </mxCell>
        <mxCell id="UJC0oAEBfITfGY8Haboo-78" value="1" style="edgeLabel;html=1;align=center;verticalAlign=middle;resizable=0;points=[];" vertex="1" connectable="0" parent="UJC0oAEBfITfGY8Haboo-51">
          <mxGeometry x="0.4971" relative="1" as="geometry">
            <mxPoint as="offset" />
          </mxGeometry>
        </mxCell>
        <mxCell id="UJC0oAEBfITfGY8Haboo-52" value="" style="endArrow=none;html=1;rounded=0;exitX=0.5;exitY=1;exitDx=0;exitDy=0;entryX=0;entryY=0.5;entryDx=0;entryDy=0;" edge="1" parent="1" source="UJC0oAEBfITfGY8Haboo-48" target="UJC0oAEBfITfGY8Haboo-49">
          <mxGeometry relative="1" as="geometry">
            <mxPoint x="480" y="290" as="sourcePoint" />
            <mxPoint x="640" y="290" as="targetPoint" />
          </mxGeometry>
        </mxCell>
        <mxCell id="UJC0oAEBfITfGY8Haboo-53" value="" style="endArrow=none;html=1;rounded=0;exitX=0.954;exitY=0.671;exitDx=0;exitDy=0;exitPerimeter=0;entryX=0;entryY=0.5;entryDx=0;entryDy=0;" edge="1" parent="1" source="UJC0oAEBfITfGY8Haboo-47" target="UJC0oAEBfITfGY8Haboo-49">
          <mxGeometry relative="1" as="geometry">
            <mxPoint x="480" y="290" as="sourcePoint" />
            <mxPoint x="640" y="290" as="targetPoint" />
          </mxGeometry>
        </mxCell>
        <mxCell id="UJC0oAEBfITfGY8Haboo-54" value="" style="endArrow=none;html=1;rounded=0;exitX=1;exitY=0.5;exitDx=0;exitDy=0;entryX=0;entryY=0.5;entryDx=0;entryDy=0;" edge="1" parent="1" source="UJC0oAEBfITfGY8Haboo-46" target="UJC0oAEBfITfGY8Haboo-49">
          <mxGeometry relative="1" as="geometry">
            <mxPoint x="480" y="290" as="sourcePoint" />
            <mxPoint x="640" y="290" as="targetPoint" />
          </mxGeometry>
        </mxCell>
        <mxCell id="UJC0oAEBfITfGY8Haboo-55" value="Nomor_Buku" style="ellipse;whiteSpace=wrap;html=1;align=center;fontStyle=4;fontSize=9;" vertex="1" parent="1">
          <mxGeometry x="706" y="372" width="80" height="35" as="geometry" />
        </mxCell>
        <mxCell id="UJC0oAEBfITfGY8Haboo-56" value="Nomor_Anggota" style="ellipse;whiteSpace=wrap;html=1;align=center;fontStyle=4;fontSize=9;" vertex="1" parent="1">
          <mxGeometry x="660" y="337" width="80" height="35" as="geometry" />
        </mxCell>
        <mxCell id="UJC0oAEBfITfGY8Haboo-57" value="Denda" style="ellipse;whiteSpace=wrap;html=1;align=center;fontSize=9;" vertex="1" parent="1">
          <mxGeometry x="660" y="441" width="80" height="35" as="geometry" />
        </mxCell>
        <mxCell id="UJC0oAEBfITfGY8Haboo-58" value="" style="endArrow=none;html=1;rounded=0;exitX=1;exitY=0.5;exitDx=0;exitDy=0;entryX=0.5;entryY=1;entryDx=0;entryDy=0;" edge="1" parent="1" source="UJC0oAEBfITfGY8Haboo-49" target="UJC0oAEBfITfGY8Haboo-56">
          <mxGeometry relative="1" as="geometry">
            <mxPoint x="480" y="290" as="sourcePoint" />
            <mxPoint x="640" y="290" as="targetPoint" />
          </mxGeometry>
        </mxCell>
        <mxCell id="UJC0oAEBfITfGY8Haboo-59" value="" style="endArrow=none;html=1;rounded=0;exitX=1;exitY=0.5;exitDx=0;exitDy=0;entryX=0;entryY=0.5;entryDx=0;entryDy=0;" edge="1" parent="1" source="UJC0oAEBfITfGY8Haboo-49" target="UJC0oAEBfITfGY8Haboo-55">
          <mxGeometry relative="1" as="geometry">
            <mxPoint x="480" y="290" as="sourcePoint" />
            <mxPoint x="640" y="290" as="targetPoint" />
          </mxGeometry>
        </mxCell>
        <mxCell id="UJC0oAEBfITfGY8Haboo-60" value="" style="endArrow=none;html=1;rounded=0;exitX=1;exitY=0.5;exitDx=0;exitDy=0;entryX=0.002;entryY=0.348;entryDx=0;entryDy=0;entryPerimeter=0;" edge="1" parent="1" source="UJC0oAEBfITfGY8Haboo-49" target="UJC0oAEBfITfGY8Haboo-45">
          <mxGeometry relative="1" as="geometry">
            <mxPoint x="480" y="290" as="sourcePoint" />
            <mxPoint x="640" y="290" as="targetPoint" />
          </mxGeometry>
        </mxCell>
        <mxCell id="UJC0oAEBfITfGY8Haboo-61" value="" style="endArrow=none;html=1;rounded=0;exitX=0.5;exitY=0;exitDx=0;exitDy=0;entryX=1;entryY=0.5;entryDx=0;entryDy=0;" edge="1" parent="1" source="UJC0oAEBfITfGY8Haboo-57" target="UJC0oAEBfITfGY8Haboo-49">
          <mxGeometry relative="1" as="geometry">
            <mxPoint x="480" y="290" as="sourcePoint" />
            <mxPoint x="640" y="290" as="targetPoint" />
          </mxGeometry>
        </mxCell>
        <mxCell id="UJC0oAEBfITfGY8Haboo-62" value="Buku" style="whiteSpace=wrap;html=1;align=center;fontSize=11;" vertex="1" parent="1">
          <mxGeometry x="590" y="500" width="100" height="50" as="geometry" />
        </mxCell>
        <mxCell id="UJC0oAEBfITfGY8Haboo-63" value="" style="endArrow=none;html=1;rounded=0;exitX=0.5;exitY=1;exitDx=0;exitDy=0;entryX=0.5;entryY=0;entryDx=0;entryDy=0;" edge="1" parent="1" source="UJC0oAEBfITfGY8Haboo-49" target="UJC0oAEBfITfGY8Haboo-62">
          <mxGeometry relative="1" as="geometry">
            <mxPoint x="480" y="540" as="sourcePoint" />
            <mxPoint x="640" y="500" as="targetPoint" />
          </mxGeometry>
        </mxCell>
        <mxCell id="UJC0oAEBfITfGY8Haboo-77" value="Many" style="edgeLabel;html=1;align=center;verticalAlign=middle;resizable=0;points=[];" vertex="1" connectable="0" parent="UJC0oAEBfITfGY8Haboo-63">
          <mxGeometry x="-0.2527" y="2" relative="1" as="geometry">
            <mxPoint as="offset" />
          </mxGeometry>
        </mxCell>
        <mxCell id="UJC0oAEBfITfGY8Haboo-65" value="Penerbit" style="ellipse;whiteSpace=wrap;html=1;align=center;fontSize=9;" vertex="1" parent="1">
          <mxGeometry x="646" y="640" width="80" height="35" as="geometry" />
        </mxCell>
        <mxCell id="UJC0oAEBfITfGY8Haboo-66" value="Tahun_Terbit" style="ellipse;whiteSpace=wrap;html=1;align=center;fontSize=9;" vertex="1" parent="1">
          <mxGeometry x="563" y="641" width="80" height="35" as="geometry" />
        </mxCell>
        <mxCell id="UJC0oAEBfITfGY8Haboo-67" value="Pengarang" style="ellipse;whiteSpace=wrap;html=1;align=center;fontSize=9;" vertex="1" parent="1">
          <mxGeometry x="697" y="560" width="80" height="35" as="geometry" />
        </mxCell>
        <mxCell id="UJC0oAEBfITfGY8Haboo-68" value="Jenis_Buku" style="ellipse;whiteSpace=wrap;html=1;align=center;fontSize=9;" vertex="1" parent="1">
          <mxGeometry x="676" y="600" width="80" height="35" as="geometry" />
        </mxCell>
        <mxCell id="UJC0oAEBfITfGY8Haboo-69" value="Judul-Buku" style="ellipse;whiteSpace=wrap;html=1;align=center;fontSize=9;" vertex="1" parent="1">
          <mxGeometry x="505" y="560" width="80" height="35" as="geometry" />
        </mxCell>
        <mxCell id="UJC0oAEBfITfGY8Haboo-70" value="Nomor_Buku" style="ellipse;whiteSpace=wrap;html=1;align=center;fontStyle=4;fontSize=9;" vertex="1" parent="1">
          <mxGeometry x="531" y="599" width="80" height="35" as="geometry" />
        </mxCell>
        <mxCell id="UJC0oAEBfITfGY8Haboo-71" value="" style="endArrow=none;html=1;rounded=0;exitX=1;exitY=0.5;exitDx=0;exitDy=0;entryX=0.5;entryY=1;entryDx=0;entryDy=0;" edge="1" parent="1" source="UJC0oAEBfITfGY8Haboo-69" target="UJC0oAEBfITfGY8Haboo-62">
          <mxGeometry relative="1" as="geometry">
            <mxPoint x="480" y="460" as="sourcePoint" />
            <mxPoint x="640" y="460" as="targetPoint" />
          </mxGeometry>
        </mxCell>
        <mxCell id="UJC0oAEBfITfGY8Haboo-72" value="" style="endArrow=none;html=1;rounded=0;exitX=1;exitY=0;exitDx=0;exitDy=0;entryX=0.5;entryY=1;entryDx=0;entryDy=0;" edge="1" parent="1" source="UJC0oAEBfITfGY8Haboo-70" target="UJC0oAEBfITfGY8Haboo-62">
          <mxGeometry relative="1" as="geometry">
            <mxPoint x="480" y="460" as="sourcePoint" />
            <mxPoint x="640" y="460" as="targetPoint" />
          </mxGeometry>
        </mxCell>
        <mxCell id="UJC0oAEBfITfGY8Haboo-73" value="" style="endArrow=none;html=1;rounded=0;exitX=0.692;exitY=0.076;exitDx=0;exitDy=0;exitPerimeter=0;entryX=0.5;entryY=1;entryDx=0;entryDy=0;" edge="1" parent="1" source="UJC0oAEBfITfGY8Haboo-66" target="UJC0oAEBfITfGY8Haboo-62">
          <mxGeometry relative="1" as="geometry">
            <mxPoint x="480" y="460" as="sourcePoint" />
            <mxPoint x="640" y="460" as="targetPoint" />
          </mxGeometry>
        </mxCell>
        <mxCell id="UJC0oAEBfITfGY8Haboo-74" value="" style="endArrow=none;html=1;rounded=0;exitX=0.3;exitY=0.033;exitDx=0;exitDy=0;exitPerimeter=0;entryX=0.5;entryY=1;entryDx=0;entryDy=0;" edge="1" parent="1" source="UJC0oAEBfITfGY8Haboo-65" target="UJC0oAEBfITfGY8Haboo-62">
          <mxGeometry relative="1" as="geometry">
            <mxPoint x="480" y="460" as="sourcePoint" />
            <mxPoint x="640" y="460" as="targetPoint" />
          </mxGeometry>
        </mxCell>
        <mxCell id="UJC0oAEBfITfGY8Haboo-75" value="" style="endArrow=none;html=1;rounded=0;exitX=0;exitY=0;exitDx=0;exitDy=0;entryX=0.5;entryY=1;entryDx=0;entryDy=0;" edge="1" parent="1" source="UJC0oAEBfITfGY8Haboo-68" target="UJC0oAEBfITfGY8Haboo-62">
          <mxGeometry relative="1" as="geometry">
            <mxPoint x="480" y="460" as="sourcePoint" />
            <mxPoint x="640" y="460" as="targetPoint" />
          </mxGeometry>
        </mxCell>
        <mxCell id="UJC0oAEBfITfGY8Haboo-76" value="" style="endArrow=none;html=1;rounded=0;exitX=0;exitY=0.5;exitDx=0;exitDy=0;entryX=0.5;entryY=1;entryDx=0;entryDy=0;" edge="1" parent="1" source="UJC0oAEBfITfGY8Haboo-67" target="UJC0oAEBfITfGY8Haboo-62">
          <mxGeometry relative="1" as="geometry">
            <mxPoint x="480" y="460" as="sourcePoint" />
            <mxPoint x="640" y="460" as="targetPoint" />
          </mxGeometry>
        </mxCell>
      </root>
    </mxGraphModel>
  </diagram>
</mxfile>
